<svg width="135" height="41" viewBox="0 0 135 41" fill="none" xmlns="http://www.w3.org/2000/svg">
<g clip-path="url(#clip0_878_99562)">
<path d="M71.7832 34H69.6709V28.2168L69.6914 27.2666L69.7256 26.2275C69.3747 26.5785 69.1309 26.8086 68.9941 26.918L67.8457 27.8408L66.8271 26.5693L70.0469 24.0059H71.7832V34ZM78.1953 27.6152C79.1615 27.6152 79.9294 27.8864 80.499 28.4287C81.0732 28.971 81.3604 29.7139 81.3604 30.6572C81.3604 31.7738 81.0163 32.6328 80.3281 33.2344C79.64 33.8359 78.6556 34.1367 77.375 34.1367C76.263 34.1367 75.3652 33.9567 74.6816 33.5967V31.7715C75.0417 31.9629 75.4609 32.1201 75.9395 32.2432C76.418 32.3617 76.8714 32.4209 77.2998 32.4209C78.5895 32.4209 79.2344 31.8923 79.2344 30.835C79.2344 29.8278 78.5667 29.3242 77.2314 29.3242C76.9899 29.3242 76.7233 29.3493 76.4316 29.3994C76.14 29.445 75.903 29.4951 75.7207 29.5498L74.8799 29.0986L75.2559 24.0059H80.6768V25.7969H77.1084L76.9238 27.7588L77.1631 27.7109C77.4411 27.6471 77.7852 27.6152 78.1953 27.6152ZM91.1221 34L88.7158 26.1592H88.6543C88.7409 27.7542 88.7842 28.8184 88.7842 29.3516V34H86.8906V24.0059H89.7754L92.1406 31.6484H92.1816L94.6904 24.0059H97.5752V34H95.5996V29.2695C95.5996 29.0462 95.6019 28.7887 95.6064 28.4971C95.6156 28.2054 95.6475 27.4307 95.7021 26.1729H95.6406L93.0635 34H91.1221ZM100.098 34V24.0059H102.217V34H100.098ZM113.599 34H110.905L106.558 26.4395H106.496C106.583 27.7747 106.626 28.7272 106.626 29.2969V34H104.732V24.0059H107.405L111.746 31.4912H111.794C111.726 30.1924 111.691 29.2741 111.691 28.7363V24.0059H113.599V34Z" fill="white"/>
<path d="M71.9531 15H67.1777V6.43359H71.9531V7.31836H68.1738V10.0781H71.7246V10.957H68.1738V14.1094H71.9531V15ZM77.8535 13.248C77.8535 13.8457 77.6309 14.3066 77.1855 14.6309C76.7402 14.9551 76.1152 15.1172 75.3105 15.1172C74.459 15.1172 73.7949 14.9824 73.3184 14.7129V13.8105C73.627 13.9668 73.957 14.0898 74.3086 14.1797C74.6641 14.2695 75.0059 14.3145 75.334 14.3145C75.8418 14.3145 76.2324 14.2344 76.5059 14.0742C76.7793 13.9102 76.916 13.6621 76.916 13.3301C76.916 13.0801 76.8066 12.8672 76.5879 12.6914C76.373 12.5117 75.9512 12.3008 75.3223 12.0586C74.7246 11.8359 74.2988 11.6426 74.0449 11.4785C73.7949 11.3105 73.6074 11.1211 73.4824 10.9102C73.3613 10.6992 73.3008 10.4473 73.3008 10.1543C73.3008 9.63086 73.5137 9.21875 73.9395 8.91797C74.3652 8.61328 74.9492 8.46094 75.6914 8.46094C76.3828 8.46094 77.0586 8.60156 77.7188 8.88281L77.373 9.67383C76.7285 9.4082 76.1445 9.27539 75.6211 9.27539C75.1602 9.27539 74.8125 9.34766 74.5781 9.49219C74.3438 9.63672 74.2266 9.83594 74.2266 10.0898C74.2266 10.2617 74.2695 10.4082 74.3555 10.5293C74.4453 10.6504 74.5879 10.7656 74.7832 10.875C74.9785 10.9844 75.3535 11.1426 75.9082 11.3496C76.6699 11.627 77.1836 11.9062 77.4492 12.1875C77.7188 12.4688 77.8535 12.8223 77.8535 13.248ZM81.5156 14.3145C81.6875 14.3145 81.8535 14.3027 82.0137 14.2793C82.1738 14.252 82.3008 14.2246 82.3945 14.1973V14.9414C82.2891 14.9922 82.1328 15.0332 81.9258 15.0645C81.7227 15.0996 81.5391 15.1172 81.375 15.1172C80.1328 15.1172 79.5117 14.4629 79.5117 13.1543V9.33398H78.5918V8.86523L79.5117 8.46094L79.9219 7.08984H80.4844V8.57812H82.3477V9.33398H80.4844V13.1133C80.4844 13.5 80.5762 13.7969 80.7598 14.0039C80.9434 14.2109 81.1953 14.3145 81.5156 14.3145ZM83.543 14.3789C83.543 14.1172 83.6016 13.9199 83.7188 13.7871C83.8398 13.6504 84.0117 13.582 84.2344 13.582C84.4609 13.582 84.6367 13.6504 84.7617 13.7871C84.8906 13.9199 84.9551 14.1172 84.9551 14.3789C84.9551 14.6328 84.8906 14.8281 84.7617 14.9648C84.6328 15.1016 84.457 15.1699 84.2344 15.1699C84.0352 15.1699 83.8691 15.1094 83.7363 14.9883C83.6074 14.8633 83.543 14.6602 83.543 14.3789ZM96.9844 10.6348C96.9844 12.0488 96.5996 13.1309 95.8301 13.8809C95.0645 14.627 93.9609 15 92.5195 15H90.1465V6.43359H92.7715C94.1035 6.43359 95.1387 6.80273 95.877 7.54102C96.6152 8.2793 96.9844 9.31055 96.9844 10.6348ZM95.9297 10.6699C95.9297 9.55273 95.6484 8.71094 95.0859 8.14453C94.5273 7.57812 93.6953 7.29492 92.5898 7.29492H91.1426V14.1387H92.3555C93.543 14.1387 94.4355 13.8477 95.0332 13.2656C95.6309 12.6797 95.9297 11.8145 95.9297 10.6699ZM101.467 15.1172C100.518 15.1172 99.7676 14.8281 99.2168 14.25C98.6699 13.6719 98.3965 12.8691 98.3965 11.8418C98.3965 10.8066 98.6504 9.98438 99.1582 9.375C99.6699 8.76562 100.355 8.46094 101.215 8.46094C102.02 8.46094 102.656 8.72656 103.125 9.25781C103.594 9.78516 103.828 10.4824 103.828 11.3496V11.9648H99.4043C99.4238 12.7188 99.6133 13.291 99.9727 13.6816C100.336 14.0723 100.846 14.2676 101.502 14.2676C102.193 14.2676 102.877 14.123 103.553 13.834V14.7012C103.209 14.8496 102.883 14.9551 102.574 15.0176C102.27 15.084 101.9 15.1172 101.467 15.1172ZM101.203 9.27539C100.688 9.27539 100.275 9.44336 99.9668 9.7793C99.6621 10.1152 99.4824 10.5801 99.4277 11.1738H102.785C102.785 10.5605 102.648 10.0918 102.375 9.76758C102.102 9.43945 101.711 9.27539 101.203 9.27539ZM106.465 15H105.492V5.88281H106.465V15ZM109.5 15H108.527V8.57812H109.5V15ZM108.445 6.83789C108.445 6.61523 108.5 6.45312 108.609 6.35156C108.719 6.24609 108.855 6.19336 109.02 6.19336C109.176 6.19336 109.311 6.24609 109.424 6.35156C109.537 6.45703 109.594 6.61914 109.594 6.83789C109.594 7.05664 109.537 7.2207 109.424 7.33008C109.311 7.43555 109.176 7.48828 109.02 7.48828C108.855 7.48828 108.719 7.43555 108.609 7.33008C108.5 7.2207 108.445 7.05664 108.445 6.83789ZM112.969 15L110.531 8.57812H111.574L112.957 12.3867C113.27 13.2773 113.453 13.8555 113.508 14.1211H113.555C113.598 13.9141 113.732 13.4863 113.959 12.8379C114.189 12.1855 114.703 10.7656 115.5 8.57812H116.543L114.105 15H112.969ZM120.287 15.1172C119.338 15.1172 118.588 14.8281 118.037 14.25C117.49 13.6719 117.217 12.8691 117.217 11.8418C117.217 10.8066 117.471 9.98438 117.979 9.375C118.49 8.76562 119.176 8.46094 120.035 8.46094C120.84 8.46094 121.477 8.72656 121.945 9.25781C122.414 9.78516 122.648 10.4824 122.648 11.3496V11.9648H118.225C118.244 12.7188 118.434 13.291 118.793 13.6816C119.156 14.0723 119.666 14.2676 120.322 14.2676C121.014 14.2676 121.697 14.123 122.373 13.834V14.7012C122.029 14.8496 121.703 14.9551 121.395 15.0176C121.09 15.084 120.721 15.1172 120.287 15.1172ZM120.023 9.27539C119.508 9.27539 119.096 9.44336 118.787 9.7793C118.482 10.1152 118.303 10.5801 118.248 11.1738H121.605C121.605 10.5605 121.469 10.0918 121.195 9.76758C120.922 9.43945 120.531 9.27539 120.023 9.27539ZM127.242 8.46094C127.527 8.46094 127.783 8.48438 128.01 8.53125L127.875 9.43359C127.609 9.375 127.375 9.3457 127.172 9.3457C126.652 9.3457 126.207 9.55664 125.836 9.97852C125.469 10.4004 125.285 10.9258 125.285 11.5547V15H124.312V8.57812H125.115L125.227 9.76758H125.273C125.512 9.34961 125.799 9.02734 126.135 8.80078C126.471 8.57422 126.84 8.46094 127.242 8.46094ZM128.191 8.57812H129.234L130.641 12.2402C130.949 13.0762 131.141 13.6797 131.215 14.0508H131.262C131.312 13.8516 131.418 13.5117 131.578 13.0312C131.742 12.5469 132.273 11.0625 133.172 8.57812H134.215L131.455 15.8906C131.182 16.6133 130.861 17.125 130.494 17.4258C130.131 17.7305 129.684 17.8828 129.152 17.8828C128.855 17.8828 128.562 17.8496 128.273 17.7832V17.0039C128.488 17.0508 128.729 17.0742 128.994 17.0742C129.662 17.0742 130.139 16.6992 130.424 15.9492L130.781 15.0352L128.191 8.57812Z" fill="white"/>
<g clip-path="url(#clip1_878_99562)">
<path fill-rule="evenodd" clip-rule="evenodd" d="M42.4392 6V12H47.9749L50.2678 20C52.329 20 54 21.671 54 23.7322V26.0966C54 28.1604 52.3792 29.8457 50.3411 29.949L50.1426 29.954L50.1464 30C50.1464 32.206 48.4181 34 46.2928 34C44.1676 34 42.4392 32.206 42.4392 30L42.4431 29.954H32.7994C32.8014 29.97 32.8052 29.984 32.8052 30C32.8052 32.206 31.0769 34 28.9516 34C26.8264 34 25.098 32.206 25.098 30L25.1019 29.954H21.2444V6H42.4392ZM46.2928 28C45.2311 28 44.366 28.898 44.366 30C44.366 31.102 45.2311 32 46.2928 32C47.3545 32 48.2196 31.102 48.2196 30C48.2196 28.898 47.3545 28 46.2928 28ZM28.9516 28C27.89 28 27.0248 28.898 27.0248 30C27.0248 31.102 27.89 32 28.9516 32C30.0133 32 30.8784 31.102 30.8784 30C30.8784 28.898 30.0133 28 28.9516 28ZM40.5124 8H23.1712V27.954H25.6587C26.3331 26.79 27.5489 26 28.9516 26C30.3543 26 31.5702 26.79 32.2445 27.954H42.9999C43.6743 26.79 44.8901 26 46.2928 26C47.6955 26 48.9113 26.79 49.5857 27.954H52.0732V22H40.5124V8ZM17 21C17.5523 21 18 21.4477 18 22C18 22.5523 17.5523 23 17 23H12C11.4477 23 11 22.5523 11 22C11 21.4477 11.4477 21 12 21H17ZM46.5375 14H42.4392V20H48.2581L46.5375 14ZM17 16C17.5523 16 18 16.4477 18 17C18 17.5523 17.5523 18 17 18H5C4.44772 18 4 17.5523 4 17C4 16.4477 4.44772 16 5 16H17ZM17 11C17.5523 11 18 11.4477 18 12C18 12.5523 17.5523 13 17 13H1C0.447715 13 0 12.5523 0 12C0 11.4477 0.447715 11 1 11H17Z" fill="white"/>
</g>
</g>
<defs>
<clipPath id="clip0_878_99562">
<rect width="135" height="41" fill="white"/>
</clipPath>
<clipPath id="clip1_878_99562">
<rect width="54" height="28" fill="white" transform="translate(0 6)"/>
</clipPath>
</defs>
</svg>
